<?xml version="1.0" encoding="utf-8"?>
<!-- Generator: Adobe Illustrator 19.0.0, SVG Export Plug-In . SVG Version: 6.00 Build 0)  -->
<svg version="1.1" id="Layer_1" xmlns="http://www.w3.org/2000/svg" xmlns:xlink="http://www.w3.org/1999/xlink" x="0px" y="0px"
	 viewBox="0 0 31.4 25.8" style="enable-background:new 0 0 31.4 25.8;" xml:space="preserve">
<style type="text/css">
	.st0{fill:#2B2B2B;}
</style>
<path class="st0" d="M30.3,8.9c-0.2-0.3-0.5-0.4-0.8-0.4h-3.8L19.2,1c-0.4-0.4-1-0.5-1.4-0.1c-0.4,0.4-0.5,1-0.1,1.4l5.4,6.2H8
	l5.4-6.2c0.4-0.4,0.3-1-0.1-1.4C13,0.6,12.3,0.6,12,1L5.4,8.5H1.6C1.3,8.5,1,8.7,0.8,8.9S0.6,9.5,0.7,9.8l4.2,14.7
	c0.1,0.4,0.5,0.7,1,0.7h19.4c0.4,0,0.8-0.3,1-0.7l4.2-14.7C30.6,9.5,30.5,9.2,30.3,8.9z M24.5,23.2H6.6L3,10.5h25.2L24.5,23.2z"/>
</svg>
